<?xml version="1.0" standalone="no"?><svg xmlns="http://www.w3.org/2000/svg" viewBox="0 0 1440 320"><path fill="#000" fill-opacity="1" d="M0,288L0,96L48,96L48,0L96,0L96,224L144,224L144,64L192,64L192,224L240,224L240,256L288,256L288,288L336,288L336,160L384,160L384,224L432,224L432,160L480,160L480,96L528,96L528,224L576,224L576,192L624,192L624,224L672,224L672,256L720,256L720,256L768,256L768,128L816,128L816,64L864,64L864,128L912,128L912,128L960,128L960,160L1008,160L1008,32L1056,32L1056,32L1104,32L1104,192L1152,192L1152,128L1200,128L1200,192L1248,192L1248,192L1296,192L1296,288L1344,288L1344,224L1392,224L1392,256L1440,256L1440,320L1392,320L1392,320L1344,320L1344,320L1296,320L1296,320L1248,320L1248,320L1200,320L1200,320L1152,320L1152,320L1104,320L1104,320L1056,320L1056,320L1008,320L1008,320L960,320L960,320L912,320L912,320L864,320L864,320L816,320L816,320L768,320L768,320L720,320L720,320L672,320L672,320L624,320L624,320L576,320L576,320L528,320L528,320L480,320L480,320L432,320L432,320L384,320L384,320L336,320L336,320L288,320L288,320L240,320L240,320L192,320L192,320L144,320L144,320L96,320L96,320L48,320L48,320L0,320L0,320Z" data-darkreader-inline-fill="" style="--darkreader-inline-fill:#007acc;"></path></svg>